<svg width="72" height="84" viewBox="0 0 72 84" fill="none" xmlns="http://www.w3.org/2000/svg">
<path fill-rule="evenodd" clip-rule="evenodd" d="M12 0H60C63.1826 0 66.2348 1.26428 68.4853 3.51472C70.7357 5.76516 72 8.8174 72 12V72C72 75.1826 70.7357 78.2348 68.4853 80.4853C66.2348 82.7357 63.1826 84 60 84H12C8.8174 84 5.76515 82.7357 3.51472 80.4853C1.26428 78.2348 0 75.1826 0 72V12C0 8.8174 1.26428 5.76516 3.51472 3.51472C5.76515 1.26428 8.8174 0 12 0ZM12 6C10.4087 6 8.88258 6.63214 7.75736 7.75736C6.63214 8.88258 6 10.4087 6 12V72C6 73.5913 6.63214 75.1174 7.75736 76.2426C8.88258 77.3679 10.4087 78 12 78H60C61.5913 78 63.1174 77.3679 64.2426 76.2426C65.3679 75.1174 66 73.5913 66 72V12C66 10.4087 65.3679 8.88258 64.2426 7.75736C63.1174 6.63214 61.5913 6 60 6H12Z" fill="#6E9C9F"/>
</svg>
